<svg width="75" height="19" viewBox="0 0 75 19" fill="none" xmlns="http://www.w3.org/2000/svg">
<path d="M13.6838 1.43002C12.8056 0.429117 11.2182 5.72205e-06 9.18754 5.72205e-06H3.29383C3.09281 -0.000101089 2.89835 0.0715408 2.74544 0.20204C2.59254 0.332539 2.49123 0.513325 2.45974 0.711866L0.00678518 16.2768C-0.00458882 16.349 -0.00017417 16.4228 0.0197252 16.4932C0.0396247 16.5635 0.0745357 16.6287 0.122053 16.6842C0.16957 16.7398 0.228564 16.7844 0.294971 16.8149C0.361377 16.8455 0.433618 16.8613 0.506714 16.8612H4.14523L5.05906 11.0651L5.03073 11.2466C5.06161 11.0484 5.16224 10.8678 5.3145 10.7373C5.46675 10.6068 5.66061 10.5349 5.86115 10.5347H7.59018C10.9869 10.5347 13.6465 9.15506 14.4234 5.16402C14.4465 5.04599 14.4664 4.9311 14.4837 4.81884C14.7146 3.34371 14.4822 2.33965 13.6843 1.43055" fill="#003087"/>
<path d="M58.2272 8.83666C58.0047 10.2971 56.8895 10.2971 55.8109 10.2971H55.1972L55.6279 7.57031C55.6541 7.40559 55.7957 7.28441 55.9625 7.28441H56.2442C56.9787 7.28441 57.6722 7.28441 58.0299 7.70251C58.2434 7.95273 58.308 8.32414 58.2272 8.83666ZM57.7577 5.02608H53.689C53.5542 5.02614 53.4239 5.07424 53.3214 5.16173C53.2189 5.24922 53.151 5.37037 53.1298 5.50345L51.4857 15.9359C51.4782 15.9842 51.4812 16.0337 51.4945 16.0808C51.5078 16.1279 51.5312 16.1715 51.563 16.2087C51.5948 16.246 51.6342 16.2759 51.6787 16.2964C51.7231 16.3169 51.7715 16.3276 51.8204 16.3277H53.9083C54.1029 16.3277 54.2687 16.1861 54.2991 15.9941L54.766 13.0354C54.809 12.7611 55.0461 12.5581 55.3241 12.5581H56.6115C59.2921 12.5581 60.8386 11.2618 61.2425 8.69082C61.4245 7.56716 61.2498 6.68376 60.7237 6.06528C60.1451 5.38542 59.1195 5.02555 57.7582 5.02555" fill="#009CDE"/>
<path d="M29.2071 8.83668C28.9847 10.2971 27.8694 10.2971 26.7904 10.2971H26.1766L26.6073 7.57034C26.6335 7.40562 26.7751 7.28444 26.942 7.28444H27.2237C27.9581 7.28444 28.6516 7.28444 29.0094 7.70253C29.2234 7.95276 29.2879 8.32416 29.2071 8.83668ZM28.7376 5.0261H24.6689C24.3909 5.0261 24.1538 5.22859 24.1103 5.50347L22.4657 15.9359C22.458 15.9843 22.4609 16.0337 22.4742 16.0809C22.4875 16.128 22.5109 16.1717 22.5427 16.209C22.5745 16.2462 22.614 16.2761 22.6585 16.2966C22.703 16.3171 22.7514 16.3277 22.8004 16.3278H24.7434C25.0215 16.3278 25.258 16.1253 25.3016 15.8504L25.7459 13.036C25.7889 12.7611 26.026 12.5586 26.3041 12.5586H27.5914C30.272 12.5586 31.8185 11.2618 32.2224 8.69085C32.4045 7.56719 32.2298 6.68379 31.7036 6.0653C31.125 5.38544 30.0994 5.02558 28.7381 5.02558M38.1838 12.5822C37.995 13.6954 37.1121 14.4429 35.9848 14.4429C35.4198 14.4429 34.9671 14.2609 34.6764 13.9168C34.3879 13.5758 34.2799 13.0895 34.3711 12.5486C34.5463 11.4449 35.4444 10.6738 36.5544 10.6738C37.1079 10.6738 37.5564 10.8574 37.8533 11.2047C38.1518 11.5546 38.2693 12.0435 38.1838 12.5822ZM40.8991 8.78947H38.9508C38.8698 8.78937 38.7914 8.81824 38.7298 8.87087C38.6683 8.92349 38.6275 8.9964 38.615 9.07642L38.53 9.62094L38.3936 9.42369C37.9719 8.8115 37.0313 8.60639 36.0923 8.60639C33.9399 8.60639 32.1013 10.2378 31.7435 12.525C31.5573 13.6671 31.8216 14.7577 32.469 15.5188C33.0633 16.2181 33.9116 16.5093 34.9225 16.5093C36.6578 16.5093 37.6199 15.395 37.6199 15.395L37.5328 15.9364C37.5251 15.9848 37.5281 16.0343 37.5414 16.0815C37.5547 16.1287 37.5781 16.1724 37.61 16.2097C37.6419 16.2469 37.6814 16.2768 37.726 16.2973C37.7705 16.3178 37.819 16.3283 37.868 16.3283H39.6222C39.9002 16.3283 40.1374 16.1263 40.1809 15.8509L41.2343 9.18186C41.2418 9.13341 41.2388 9.08389 41.2254 9.03671C41.2121 8.98953 41.1886 8.94582 41.1567 8.90858C41.1248 8.87133 41.0852 8.84145 41.0406 8.82098C40.996 8.80051 40.9476 8.78994 40.8985 8.79" fill="#003087"/>
<path d="M67.2039 12.5822C67.015 13.6954 66.1322 14.4429 65.0048 14.4429C64.4399 14.4429 63.9871 14.2609 63.6965 13.9168C63.408 13.5758 63.2999 13.0895 63.3912 12.5486C63.5664 11.4449 64.464 10.6738 65.5745 10.6738C66.128 10.6738 66.5765 10.8574 66.8734 11.2047C67.1719 11.5546 67.2894 12.0435 67.2039 12.5822ZM69.9191 8.78947H67.9708C67.8898 8.78937 67.8115 8.81824 67.7499 8.87087C67.6883 8.92349 67.6476 8.9964 67.6351 9.07642L67.5501 9.62094L67.4137 9.42369C66.992 8.8115 66.0514 8.60639 65.1124 8.60639C62.9605 8.60639 61.1219 10.2378 60.7636 12.525C60.5773 13.6671 60.8423 14.7577 61.4896 15.5188C62.0839 16.2181 62.9322 16.5093 63.9431 16.5093C65.6789 16.5093 66.641 15.395 66.641 15.395L66.5539 15.9364C66.5461 15.9848 66.5489 16.0343 66.5621 16.0814C66.5753 16.1286 66.5986 16.1724 66.6304 16.2096C66.6621 16.2469 66.7017 16.2768 66.7462 16.2973C66.7907 16.3178 66.8391 16.3284 66.8881 16.3283H68.6418C68.9198 16.3283 69.1569 16.1263 69.201 15.8509L70.2543 9.18186C70.2619 9.13341 70.2589 9.08389 70.2455 9.03671C70.2321 8.98953 70.2087 8.94582 70.1768 8.90858C70.1449 8.87133 70.1053 8.84145 70.0607 8.82098C70.0161 8.80051 69.9677 8.78994 69.9186 8.79" fill="#009CDE"/>
<path d="M51.276 8.78995H49.3172C49.1299 8.78995 48.9553 8.8828 48.8503 9.03808L46.1487 13.0165L45.0036 9.19336C44.9686 9.07674 44.897 8.97449 44.7994 8.90174C44.7018 8.82898 44.5834 8.7896 44.4617 8.78943H42.537C42.483 8.78945 42.4298 8.80235 42.3818 8.82705C42.3338 8.85174 42.2924 8.88753 42.261 8.93143C42.2296 8.97534 42.2092 9.0261 42.2013 9.07949C42.1935 9.13289 42.1985 9.18739 42.2159 9.23847L44.372 15.5681L42.3439 18.4297C42.3081 18.4805 42.2869 18.5402 42.2826 18.6022C42.2784 18.6642 42.2913 18.7262 42.3198 18.7814C42.3484 18.8366 42.3916 18.8829 42.4447 18.9153C42.4978 18.9476 42.5587 18.9647 42.6209 18.9648H44.5776C44.7622 18.9648 44.9359 18.874 45.0419 18.7219L51.554 9.3224C51.5894 9.2716 51.6102 9.21207 51.6141 9.15029C51.618 9.08852 51.6049 9.02685 51.5763 8.97198C51.5476 8.9171 51.5045 8.87113 51.4516 8.83904C51.3986 8.80695 51.3379 8.78997 51.276 8.78995Z" fill="#003087"/>
<path d="M72.2154 5.31303L70.5451 15.9364C70.5376 15.9848 70.5406 16.0343 70.5539 16.0814C70.5673 16.1286 70.5907 16.1722 70.6225 16.2095C70.6544 16.2467 70.6939 16.2766 70.7384 16.2971C70.7829 16.3176 70.8313 16.3282 70.8803 16.3283H72.5595C72.8376 16.3283 73.0747 16.1258 73.1182 15.8509L74.7649 5.41795C74.7726 5.36952 74.7696 5.32001 74.7563 5.27284C74.743 5.22566 74.7196 5.18193 74.6877 5.14468C74.6558 5.10742 74.6162 5.07753 74.5717 5.05705C74.5272 5.03658 74.4787 5.02601 74.4297 5.02608H72.5506C72.4697 5.02588 72.3914 5.05465 72.3299 5.1072C72.2685 5.15974 72.2278 5.2331 72.2154 5.31303Z" fill="#009CDE"/>
<path d="M13.6838 1.43002C12.8056 0.429117 11.2182 5.72205e-06 9.18754 5.72205e-06H3.29383C3.09281 -0.000101089 2.89835 0.0715408 2.74544 0.20204C2.59254 0.332539 2.49123 0.513325 2.45974 0.711866L0.00678518 16.2768C-0.00458882 16.349 -0.00017417 16.4228 0.0197252 16.4932C0.0396247 16.5635 0.0745357 16.6287 0.122053 16.6842C0.16957 16.7398 0.228564 16.7844 0.294971 16.8149C0.361377 16.8455 0.433618 16.8613 0.506714 16.8612H4.14523L5.05906 11.0651L5.03073 11.2466C5.06161 11.0484 5.16224 10.8678 5.3145 10.7373C5.46675 10.6068 5.66061 10.5349 5.86115 10.5347H7.59018C10.9869 10.5347 13.6465 9.15506 14.4234 5.16402C14.4465 5.04599 14.4664 4.9311 14.4837 4.81884C14.7146 3.34371 14.4822 2.33965 13.6843 1.43055" fill="#003087"/>
<path d="M6.04054 4.83822C6.06811 4.66474 6.15661 4.50677 6.29015 4.39265C6.42369 4.27853 6.59353 4.21574 6.76919 4.21554H11.3897C11.9369 4.21554 12.4473 4.25121 12.9136 4.3257C13.1686 4.36672 13.4209 4.42313 13.669 4.49462C13.9509 4.57386 14.2236 4.68252 14.4827 4.81882C14.7145 3.34316 14.4816 2.33963 13.6837 1.43C12.8051 0.429617 11.2182 0.000505447 9.18752 0.000505447H3.29329C3.09245 0.000648499 2.89824 0.0724049 2.74555 0.202881C2.59286 0.333357 2.4917 0.514006 2.46025 0.712368L0.00624246 16.2757C-0.00520852 16.3479 -0.000869298 16.4218 0.0189614 16.4921C0.0387921 16.5625 0.0736426 16.6277 0.121111 16.6833C0.16858 16.7389 0.227539 16.7836 0.293924 16.8142C0.360309 16.8448 0.432542 16.8606 0.505647 16.8607H4.14469L5.05852 11.064L6.04054 4.83822Z" fill="#003087"/>
<path d="M14.4831 4.81832C14.4651 4.93374 14.445 5.04882 14.4228 5.1635C13.6459 9.15401 10.9862 10.5342 7.58956 10.5342H5.86C5.65949 10.5343 5.46565 10.6062 5.31346 10.7367C5.16127 10.8673 5.06077 11.0479 5.03011 11.2461L4.14461 16.8602L3.89281 18.4528C3.8828 18.516 3.88661 18.5807 3.904 18.6423C3.92138 18.7039 3.95192 18.761 3.99351 18.8097C4.0351 18.8583 4.08674 18.8974 4.14489 18.9242C4.20303 18.951 4.2663 18.9648 4.33031 18.9648H7.39756C7.76057 18.9648 8.06903 18.7004 8.12621 18.3421L8.15611 18.1858L8.7342 14.5221L8.77092 14.3196C8.79841 14.146 8.88695 13.9879 9.02062 13.8737C9.15429 13.7596 9.32431 13.6969 9.50009 13.6969H9.9591C12.9304 13.6969 15.2569 12.4904 15.9367 8.99874C16.22 7.54039 16.0731 6.32178 15.323 5.46619C15.0848 5.20092 14.8002 4.98137 14.4831 4.81832Z" fill="#009CDE"/>
<path d="M13.6695 4.49469C13.5509 4.45954 13.4287 4.42806 13.3028 4.40026C13.1769 4.37246 13.0468 4.3478 12.9136 4.32682C12.4467 4.25075 11.9368 4.21508 11.3891 4.21508H6.76912C6.59327 4.21487 6.42314 4.27758 6.2895 4.39188C6.15586 4.50618 6.06753 4.66453 6.04047 4.83829L5.05845 11.0651L5.03012 11.2461C5.06078 11.0479 5.16128 10.8673 5.31347 10.7367C5.46566 10.6062 5.65951 10.5344 5.86001 10.5342H7.58957C10.9863 10.5342 13.6459 9.15457 14.4228 5.16353C14.4459 5.0455 14.4653 4.93114 14.4831 4.81836C14.278 4.711 14.0642 4.62081 13.8442 4.54872C13.787 4.52983 13.7288 4.51252 13.6695 4.49469Z" fill="#012169"/>
</svg>
